<mxfile host="app.diagrams.net" modified="2021-03-28T12:10:52.164Z" agent="5.0 (Macintosh; Intel Mac OS X 11_2_3) AppleWebKit/537.36 (KHTML, like Gecko) Chrome/89.0.4389.90 Safari/537.36" etag="uftQVeux4FT6vSi9R3YF" version="14.5.3" type="github">
  <diagram id="us1LcFGeUwg1HdXD7bFn" name="Page-1">
    <mxGraphModel dx="1678" dy="942" grid="1" gridSize="10" guides="1" tooltips="1" connect="1" arrows="1" fold="1" page="1" pageScale="1" pageWidth="850" pageHeight="1100" math="0" shadow="0">
      <root>
        <mxCell id="0" />
        <mxCell id="1" parent="0" />
        <mxCell id="XRL6luLReAN-mVit_iQO-1" value="Data server" style="rounded=1;whiteSpace=wrap;html=1;fillColor=#d5e8d4;strokeColor=#82b366;" vertex="1" parent="1">
          <mxGeometry x="120" y="440" width="160" height="40" as="geometry" />
        </mxCell>
        <mxCell id="XRL6luLReAN-mVit_iQO-2" value="API server" style="rounded=1;whiteSpace=wrap;html=1;fillColor=#dae8fc;strokeColor=#6c8ebf;" vertex="1" parent="1">
          <mxGeometry x="320" y="440" width="160" height="40" as="geometry" />
        </mxCell>
        <mxCell id="XRL6luLReAN-mVit_iQO-4" value="Github" style="ellipse;whiteSpace=wrap;html=1;aspect=fixed;" vertex="1" parent="1">
          <mxGeometry x="360" y="280" width="80" height="80" as="geometry" />
        </mxCell>
        <mxCell id="XRL6luLReAN-mVit_iQO-5" value="" style="shape=flexArrow;endArrow=classic;startArrow=classic;html=1;" edge="1" parent="1" source="XRL6luLReAN-mVit_iQO-2" target="XRL6luLReAN-mVit_iQO-4">
          <mxGeometry width="50" height="50" relative="1" as="geometry">
            <mxPoint x="398" y="470" as="sourcePoint" />
            <mxPoint x="440" y="480" as="targetPoint" />
          </mxGeometry>
        </mxCell>
        <mxCell id="XRL6luLReAN-mVit_iQO-6" value="REST" style="edgeLabel;html=1;align=center;verticalAlign=middle;resizable=0;points=[];" vertex="1" connectable="0" parent="XRL6luLReAN-mVit_iQO-5">
          <mxGeometry x="-0.05" relative="1" as="geometry">
            <mxPoint as="offset" />
          </mxGeometry>
        </mxCell>
        <mxCell id="XRL6luLReAN-mVit_iQO-8" value="Hooks" style="curved=1;endArrow=classic;html=1;exitX=1;exitY=0.5;exitDx=0;exitDy=0;entryX=1;entryY=0.5;entryDx=0;entryDy=0;" edge="1" parent="1" source="XRL6luLReAN-mVit_iQO-4" target="XRL6luLReAN-mVit_iQO-2">
          <mxGeometry width="50" height="50" relative="1" as="geometry">
            <mxPoint x="390" y="530" as="sourcePoint" />
            <mxPoint x="440" y="480" as="targetPoint" />
            <Array as="points">
              <mxPoint x="520" y="320" />
              <mxPoint x="520" y="460" />
            </Array>
          </mxGeometry>
        </mxCell>
        <mxCell id="XRL6luLReAN-mVit_iQO-11" value="" style="shape=flexArrow;endArrow=classic;startArrow=classic;html=1;" edge="1" parent="1" source="XRL6luLReAN-mVit_iQO-2" target="XRL6luLReAN-mVit_iQO-18">
          <mxGeometry width="50" height="50" relative="1" as="geometry">
            <mxPoint x="430" y="480" as="sourcePoint" />
            <mxPoint x="480" y="430" as="targetPoint" />
          </mxGeometry>
        </mxCell>
        <mxCell id="XRL6luLReAN-mVit_iQO-12" value="REST" style="edgeLabel;html=1;align=center;verticalAlign=middle;resizable=0;points=[];" vertex="1" connectable="0" parent="XRL6luLReAN-mVit_iQO-11">
          <mxGeometry x="-0.0012" y="-1" relative="1" as="geometry">
            <mxPoint as="offset" />
          </mxGeometry>
        </mxCell>
        <mxCell id="XRL6luLReAN-mVit_iQO-13" value="" style="shape=flexArrow;endArrow=classic;startArrow=classic;html=1;" edge="1" parent="1" source="XRL6luLReAN-mVit_iQO-1" target="XRL6luLReAN-mVit_iQO-18">
          <mxGeometry width="50" height="50" relative="1" as="geometry">
            <mxPoint x="393.33333333333326" y="490" as="sourcePoint" />
            <mxPoint x="326.66666666666674" y="570" as="targetPoint" />
          </mxGeometry>
        </mxCell>
        <mxCell id="XRL6luLReAN-mVit_iQO-14" value="REST-like" style="edgeLabel;html=1;align=center;verticalAlign=middle;resizable=0;points=[];" vertex="1" connectable="0" parent="XRL6luLReAN-mVit_iQO-13">
          <mxGeometry x="-0.0012" y="-1" relative="1" as="geometry">
            <mxPoint as="offset" />
          </mxGeometry>
        </mxCell>
        <mxCell id="XRL6luLReAN-mVit_iQO-18" value="&lt;span&gt;Main web app&lt;/span&gt;" style="rounded=1;whiteSpace=wrap;html=1;fillColor=#d5e8d4;strokeColor=#82b366;" vertex="1" parent="1">
          <mxGeometry x="220" y="560" width="160" height="40" as="geometry" />
        </mxCell>
        <mxCell id="XRL6luLReAN-mVit_iQO-19" value="" style="group" vertex="1" connectable="0" parent="1">
          <mxGeometry x="800" y="80" width="190" height="160" as="geometry" />
        </mxCell>
        <mxCell id="XRL6luLReAN-mVit_iQO-16" value="" style="rounded=1;whiteSpace=wrap;html=1;fillColor=#d5e8d4;strokeColor=#82b366;" vertex="1" parent="XRL6luLReAN-mVit_iQO-19">
          <mxGeometry width="160" height="40" as="geometry" />
        </mxCell>
        <mxCell id="XRL6luLReAN-mVit_iQO-17" value="&lt;h1 style=&quot;font-size: 18px&quot;&gt;Static server&lt;/h1&gt;&lt;p&gt;a CDN without an active server&lt;/p&gt;" style="text;html=1;strokeColor=none;fillColor=none;spacing=5;spacingTop=-20;whiteSpace=wrap;overflow=hidden;rounded=0;" vertex="1" parent="XRL6luLReAN-mVit_iQO-19">
          <mxGeometry y="40" width="190" height="120" as="geometry" />
        </mxCell>
        <mxCell id="XRL6luLReAN-mVit_iQO-20" value="" style="group" vertex="1" connectable="0" parent="1">
          <mxGeometry x="1120" y="80" width="190" height="160" as="geometry" />
        </mxCell>
        <mxCell id="XRL6luLReAN-mVit_iQO-21" value="" style="rounded=1;whiteSpace=wrap;html=1;fillColor=#dae8fc;strokeColor=#6c8ebf;" vertex="1" parent="XRL6luLReAN-mVit_iQO-20">
          <mxGeometry width="160" height="40" as="geometry" />
        </mxCell>
        <mxCell id="XRL6luLReAN-mVit_iQO-22" value="&lt;h1 style=&quot;font-size: 18px&quot;&gt;Dynamic server&lt;/h1&gt;&lt;p&gt;a VPS&lt;/p&gt;" style="text;html=1;strokeColor=none;fillColor=none;spacing=5;spacingTop=-20;whiteSpace=wrap;overflow=hidden;rounded=0;" vertex="1" parent="XRL6luLReAN-mVit_iQO-20">
          <mxGeometry y="40" width="190" height="120" as="geometry" />
        </mxCell>
      </root>
    </mxGraphModel>
  </diagram>
</mxfile>
